<svg xmlns="http://www.w3.org/2000/svg" viewBox="0 0 100 120">
  <!-- Crown -->
  <path d="M20 25 L25 5 L30 20 L50 0 L70 20 L75 5 L80 25 L85 25 L85 35 L15 35 L15 25 Z" fill="#D4A017" stroke="#B8860B" stroke-width="1"/>
  
  <!-- White diamond -->
  <polygon points="50,30 90,70 50,110 10,70" fill="#FFFEF7" stroke="#ccc" stroke-width="0.5"/>
  
  <!-- Green mountain -->
  <ellipse cx="50" cy="78" rx="25" ry="20" fill="#2E8B57"/>
  
  <!-- Golden cross -->
  <line x1="35" y1="68" x2="65" y2="88" stroke="#D4A017" stroke-width="5" stroke-linecap="round"/>
  <line x1="65" y1="68" x2="35" y2="88" stroke="#D4A017" stroke-width="5" stroke-linecap="round"/>
  
  <!-- Catalan bars -->
  <polygon points="35,95 50,110 65,95" fill="#D4A017"/>
  <rect x="38" y="95" width="5" height="15" fill="#C41E3A" transform="rotate(0)"/>
  <rect x="48" y="95" width="5" height="15" fill="#C41E3A"/>
  <rect x="58" y="95" width="5" height="15" fill="#C41E3A"/>
  
  <!-- Red roundel -->
  <circle cx="50" cy="48" r="8" fill="#C41E3A"/>
  <circle cx="50" cy="48" r="2" fill="#FFFEF7"/>
</svg>
