<?xml version="1.0" encoding="UTF-8" standalone="no"?>
<svg
   width="100"
   height="120"
   viewBox="0 0 100 120"
   version="1.1"
   id="svg8"
   xmlns="http://www.w3.org/2000/svg">
  <defs
     id="defs2" />
  <g
     id="layer1">
    <g
       id="g4521"
       transform="translate(0.02451,-0.1241)">
      <path
         id="path12"
         style="fill:#d4a017;stroke:#b8860b;stroke-width:1.00034"
         d="M 20.0001,25.0423 25.0124,5.0121 30.0452,20.0342 50.0001,0.0121 69.9548,20.0342 74.9876,5.0121 80.0001,25.0423 h 4.9922 V 35.0674 H 15.0077 V 25.0423 Z" />
      <path
         id="path14"
         style="fill:#fffef7;stroke:#cccccc;stroke-width:0.50017"
         d="M 50.0001,30.0121 90.0124,70.0243 50.0001,110.0365 10.0124,70.0243 Z" />
      <path
         style="display:inline;fill:#2e8b57;stroke-width:1.00034"
         id="path16"
         d="M 75.012575,78.024512 A 25.012451,20.034215 0 0 1 50.000124,98.058727 25.012451,20.034215 0 0 1 24.987673,78.024512 25.012451,20.034215 0 0 1 50.000124,57.990297 25.012451,20.034215 0 0 1 75.012575,78.024512 Z" />
      <g
         id="g20"
         style="stroke:#d4a017;stroke-width:5.0017;stroke-linecap:round">
        <line
           id="line18"
           x1="35.012402"
           y1="68.045197"
           x2="64.987602"
           y2="87.954803" />
        <line
           id="line19"
           x1="64.987602"
           y1="68.045197"
           x2="35.012402"
           y2="87.954803" />
      </g>
      <g
         id="g2">
        <path
           id="path22"
           style="fill:#d4a017;stroke-width:1.00034"
           d="M 35.0124,95.0674 50.0001,110.0365 64.9876,95.0674 Z" />
        <rect
           style="fill:#c41e3a;stroke-width:1.00034"
           id="rect24"
           width="5.0124002"
           height="15.0342"
           x="38.0452"
           y="95.067398" />
        <rect
           style="fill:#c41e3a;stroke-width:1.00034"
           id="rect26"
           width="5.0124002"
           height="15.0342"
           x="48.012402"
           y="95.067398" />
        <rect
           style="fill:#c41e3a;stroke-width:1.00034"
           id="rect28"
           width="5.0124002"
           height="15.0342"
           x="58.1245"
           y="95.067398" />
      </g>
      <g
         id="g1">
        <path
           style="fill:#c41e3a;stroke-width:1.00034"
           id="path30"
           d="m 58.012575,48.045212 a 8.0124512,8.0124512 0 0 1 -8.012451,8.012451 8.0124512,8.0124512 0 0 1 -8.012451,-8.012451 8.0124512,8.0124512 0 0 1 8.012451,-8.012451 8.0124512,8.0124512 0 0 1 8.012451,8.012451 z" />
        <path
           style="fill:#fffef7;stroke-width:1.00034"
           id="path32"
           d="m 52.034339,48.045212 a 2.0342152,2.0342152 0 0 1 -2.034215,2.034215 2.0342152,2.0342152 0 0 1 -2.034215,-2.034215 2.0342152,2.0342152 0 0 1 2.034215,-2.034215 2.0342152,2.0342152 0 0 1 2.034215,2.034215 z" />
      </g>
    </g>
  </g>
</svg>
